<?xml version="1.0" encoding="utf-8" ?>
<svg xmlns="http://www.w3.org/2000/svg" xmlns:xlink="http://www.w3.org/1999/xlink" width="1024" height="1024">
	<path fill="#FEFEFE" d="M0 0L1024 0L1024 1024L0 1024L0 0Z"/>
	<path d="M501.494 90.2188C530.544 88.1031 561.993 92.923 589.548 102.114C625.793 114.204 657.812 134.649 685.881 160.339C691.991 165.931 698.123 171.485 703.661 177.658C709.335 183.983 714.822 190.659 719.867 197.498C722.203 200.665 724.209 204.27 726.719 207.27C728.979 209.97 732.206 212.053 734.772 214.501C741.333 220.761 746.474 228.644 750.47 236.74C764.161 264.478 765.813 299.863 755.846 328.965C751.304 342.227 744.106 356.185 733.783 365.897C730.588 368.904 726.433 371.089 723.496 374.313C718.543 379.751 714.895 386.444 709.975 392.001Q707.201 395.135 704.293 398.145Q701.385 401.155 698.348 404.035Q695.312 406.915 692.152 409.66Q688.992 412.405 685.716 415.009Q682.44 417.614 679.053 420.072Q675.666 422.531 672.175 424.84Q668.684 427.149 665.095 429.303Q661.507 431.457 657.828 433.452C652.031 436.544 645.96 439.038 640.07 441.942C662.946 451.689 679.902 464.963 698.68 480.797C710.279 472.473 724.698 464.454 738.424 460.652C742.87 459.42 747.736 459.675 752.082 458.14C755.994 456.758 759.424 454.072 763.277 452.57C765.915 451.542 769.092 451.984 771.843 451.16C775.812 449.973 779.511 447.489 783.559 446.139C784.985 443.588 786.261 440.916 787.897 438.49C794.388 428.861 803.353 424.605 814.443 422.46C819.923 416.953 825.627 413.873 833.243 412.384C836.849 386.994 844.179 362.845 852.154 338.551C844.494 319.619 845.216 300.795 849.534 281.129C842.207 267.452 824.275 235.848 824.293 221.254C824.296 218.183 824.67 214.384 827.07 212.168C828.786 210.584 831.292 210.046 833.57 210.236C842.983 211.02 858.152 240.91 864.64 248.74C872.324 237.701 881.939 228.344 894.611 223.471Q893.93 219.613 893.603 215.71C893.057 208.436 892.75 200.266 893.935 193.064C895.502 183.547 906.67 156.422 912.859 149.523C914.487 147.709 916.961 145.94 919.519 146.021C921.253 146.076 922.965 147.167 924.191 148.322C931.877 155.568 927.351 174.987 924.876 183.662C923.754 187.595 921.752 191.845 921.208 195.854C920.156 203.598 920.988 216.55 920.962 224.916C922.912 218.402 924.285 211.955 926.755 205.566C931.628 192.966 944.485 170.593 955.431 162.279C957.698 160.557 960.085 159.211 963.018 159.675C964.621 159.929 966.064 160.699 966.984 162.069C974.269 172.913 956.984 200.592 952.125 211.418C950.215 215.674 948.807 219.675 947.909 224.258C953.019 215.432 958.364 206.682 965.623 199.428C969.179 195.874 975.657 189.775 980.998 189.965C983.016 190.036 984.505 191.137 985.751 192.649C987.726 195.044 988.154 197.921 987.712 200.929C986.57 208.706 981.482 216.677 976.757 222.757C974.71 225.391 972.169 228.089 970.575 231.02C964.72 241.788 962.956 258.199 952.822 266.087Q953.089 268.008 953.286 269.938Q953.484 271.867 953.612 273.802Q953.74 275.737 953.798 277.676Q953.856 279.615 953.844 281.554Q953.832 283.494 953.751 285.431Q953.669 287.369 953.518 289.303Q953.367 291.236 953.146 293.163Q952.926 295.09 952.636 297.008Q952.346 298.925 951.987 300.832Q951.628 302.738 951.201 304.629Q950.774 306.521 950.279 308.397Q949.784 310.272 949.222 312.128Q948.66 313.984 948.032 315.819Q947.403 317.654 946.709 319.465Q946.015 321.276 945.256 323.061Q944.497 324.846 943.674 326.602C933.823 347.45 921.286 360.732 899.462 368.583C896.77 376.573 895.23 384.987 893.041 393.131C888.732 409.167 883.297 425.219 876.263 440.266C878.182 448.921 879.091 457.535 875.652 465.958C872.166 474.497 865.734 479.286 857.562 482.8C856.824 486.355 855.688 489.389 853.765 492.474C848.667 500.65 840.607 505.049 831.409 507.117Q829.119 510.894 826.374 514.354C818.77 523.75 810.394 527.435 798.569 528.733C793.759 533.582 788.929 537.927 782.476 540.446C772.255 544.436 762.044 543.081 752.207 538.764C783.088 584.932 799.038 645.486 800.613 700.641C800.874 709.764 801.261 718.989 800.415 728.087C797.127 730.381 793.268 732.315 789.521 733.739C787.628 743.308 784.731 752.549 781.771 761.827C770.955 795.724 755.727 827.297 737.617 857.884C733.497 864.841 729.303 873.332 723.85 879.32C719.295 884.321 712.824 888.184 707.161 891.849C696.657 898.647 685.635 903.505 674.024 908.04C628.949 925.646 580.346 932.223 532.225 933.932C463.35 935.413 369.504 927.146 311.036 887.566C301.109 880.846 294.747 869.869 288.318 859.993C263.081 821.227 242.945 777.746 234.298 732.055C230.423 730.335 226.67 728.201 222.904 726.249C222.849 712.417 222.797 698.542 223.804 684.74C227.868 629.102 244.429 582.682 273.592 535.499C266.925 539.187 259.844 541.313 252.17 541.02C241.098 540.597 231.86 535.116 224.513 527.117Q223.127 527.097 221.745 526.982C207.346 525.856 200.088 517.575 191.223 507.295C185.891 505.635 181.071 503.761 176.676 500.24C170.59 495.365 165.854 488.363 164.978 480.508C159.858 477.756 155.505 474.84 151.981 470.122C145.198 461.043 145.791 451.284 147.452 440.707C137.662 418.028 130.342 393.414 124.909 369.329Q122.69 368.538 120.528 367.603Q118.366 366.667 116.271 365.59Q114.175 364.514 112.156 363.301Q110.136 362.088 108.202 360.744Q106.267 359.4 104.426 357.93Q102.584 356.461 100.844 354.874Q99.1035 353.286 97.4722 351.586Q95.8409 349.887 94.3256 348.083C79.3202 330.412 71.1813 306.418 70.2981 283.335C70.067 277.295 70.6181 271.319 71.1324 265.309Q70.6199 264.84 70.1284 264.349C61.3081 255.493 60.3122 241.955 54.8303 231.388C53.1036 228.059 50.2014 225.04 47.9767 222.012C43.5835 216.034 36.7637 205.697 36.9817 197.987C37.0534 195.452 38.1659 192.708 40.2677 191.172C41.9283 189.958 44.3844 190.027 46.2966 190.469C48.252 190.92 50.2936 192.494 51.9234 193.629C62.4637 200.964 68.086 211.123 75.0066 221.52C72.7828 205.825 61.4711 194.378 57.4872 179.268C55.9706 173.515 54.9453 166.434 58.3472 161.12C59.0673 159.995 60.0992 159.224 61.4632 159.083C63.7027 158.852 66.1852 160.408 67.914 161.645C77.5143 168.515 91.8347 192.348 95.9405 203.406C98.5834 210.524 100.058 218.024 101.353 225.485C102.289 218.322 103.16 200.38 101.88 193.648C101.295 190.57 100.006 187.51 99.1279 184.493Q96.7 176.006 95.83 167.222C95.2562 161.204 95.1592 153.557 99.4156 148.761C100.504 147.535 101.839 146.666 103.544 146.663C106.32 146.658 108.884 148.757 110.669 150.679C117.488 158.019 119.476 168.575 123.466 177.448C125.538 182.054 128.665 186.19 129.533 191.257C131.282 201.472 130.445 212.611 130.241 222.968C143.109 229.902 149.972 237.061 158.626 248.682C161.101 245.933 164.344 243.131 166.399 240.094C172.043 231.754 174.861 219.642 183.961 214.029C186.684 212.349 190.532 211.907 193.589 212.828C195.425 213.382 196.852 214.544 197.686 216.282C202.959 227.281 190.751 245.291 186.506 254.916C184.595 259.248 183.447 263.913 181.544 268.282C179.219 273.623 176.042 278.827 174.106 284.283C174.054 284.43 174.005 284.578 173.955 284.726C177.032 296.188 177.291 310.395 175.545 322.112C175 325.77 173.082 329.846 173.471 333.53C174.401 342.345 177.171 351.656 179.123 360.327Q185.112 385.879 190.404 411.585C198.396 413.27 204.049 415.976 209.975 421.632C213.183 422.273 216.411 422.999 219.466 424.188C231.107 428.715 236.782 436.882 241.654 447.954C248.865 452.026 254.857 454.691 262.876 456.868C264.854 457.405 267.108 458.241 269.141 458.441C272.42 458.764 275.833 457.99 279.097 458.443C293.582 460.452 309.047 471.729 317.562 483.227C337.632 466.018 359.19 452.382 383.012 440.911C358.785 429.725 336.918 415.979 318.481 396.485C315.682 393.524 312.768 390.575 310.305 387.326C307.563 383.709 305.051 379.357 301.995 376.049C300.375 374.296 297.733 373.541 295.886 371.872C274.454 352.504 264.174 321.292 262.828 293.112C261.624 267.897 268.717 239.893 284.835 220.036C288.994 214.913 294.59 211.333 298.685 206.334C301.609 202.763 304.08 198.718 306.846 195.009Q315.283 183.776 324.692 173.342Q326.813 171.04 328.99 168.791Q331.166 166.541 333.396 164.344Q335.626 162.148 337.909 160.006Q340.192 157.864 342.525 155.778Q344.859 153.692 347.242 151.663Q349.626 149.633 352.057 147.662Q354.489 145.691 356.968 143.78Q359.446 141.868 361.97 140.017Q364.494 138.166 367.062 136.376Q369.63 134.586 372.241 132.859Q374.852 131.132 377.503 129.469Q380.155 127.805 382.846 126.206Q385.537 124.607 388.266 123.074Q390.994 121.54 393.759 120.073Q396.524 118.606 399.324 117.206Q402.124 115.806 404.957 114.474Q407.789 113.143 410.653 111.88Q413.517 110.617 416.411 109.423Q419.305 108.23 422.227 107.107Q425.148 105.984 428.096 104.931Q431.045 103.879 434.017 102.899Q436.99 101.918 439.985 101.009Q442.981 100.101 445.997 99.265Q449.014 98.4291 452.049 97.6663Q455.085 96.9035 458.139 96.2143Q461.192 95.5251 464.261 94.9099Q467.33 94.2947 470.413 93.7539Q473.496 93.213 476.592 92.7468Q479.687 92.2805 482.792 91.8893Q485.898 91.498 489.012 91.1818Q492.126 90.8657 495.247 90.6249Q498.368 90.3841 501.494 90.2188Z"/>
	<path fill="#FEFEFE" d="M742.931 466.044L743.745 466.15C743.332 467.976 740.805 470.278 739.565 471.764C733.125 479.482 729.276 488.915 729.497 499.09C729.556 501.831 730.289 504.479 730.255 507.228L729.601 507.041L726.163 502.655C724.911 494.36 725.97 482.842 729.947 475.328C732.864 469.817 737.273 467.776 742.931 466.044Z"/>
	<path fill="#FEFEFE" d="M43.6358 196.158C51.7289 198.68 58.7213 208.187 63.0132 215.114C61.8625 216.695 60.5078 218.15 59.2286 219.629L56.2511 223.805C50.7802 215.884 42.9252 206.314 43.6358 196.158Z"/>
	<path fill="#FEFEFE" d="M979.271 196.397L980.226 196.623C980.755 197.325 981.004 197.51 981.163 198.414C982.325 205.028 972.822 217.433 968.992 222.741L966.015 219.719L961.337 214.184C966.824 207.396 971.686 200.982 979.271 196.397Z"/>
	<path fill="#FEFEFE" d="M88.9409 203.116C91.3081 207.128 94.4403 220.577 95.9392 225.662C92.804 227.767 89.9981 230.399 87.1569 232.878L86.505 232.605C82.8649 224.283 80.4004 215.665 77.7004 207.016C81.352 205.637 85.5357 205.025 88.9409 203.116Z"/>
	<path fill="#FEFEFE" d="M276.299 464.835C280.432 465.1 284.693 465.602 288.341 467.706C296.885 472.632 299.253 489.567 301.49 498.706C299.781 500.703 297.969 502.63 296.207 504.582L291.839 510.194C292.71 505.461 293.313 500.855 292.967 496.034C292.009 482.697 286.22 473.387 276.299 464.835Z"/>
	<path fill="#FEFEFE" d="M66.5642 220.848C70.8146 222.982 76.78 238.47 78.3929 242.88C76.8484 247.566 74.8157 252.194 73.0382 256.807L72.6638 256.812C69.3885 254.34 62.1702 233.477 60.6494 228.571Q63.5732 224.684 66.5642 220.848Z"/>
	<path fill="#FEFEFE" d="M934.142 202.247C938.283 203.977 942.266 206.193 946.262 208.232C943.009 216.745 940.74 225.301 938.576 234.14C937.211 233.983 929.068 226.803 927.029 225.486C929.021 217.622 931.525 209.922 934.142 202.247Z"/>
	<path fill="#FEFEFE" d="M61.9745 166.112C62.4516 166.196 62.5506 166.198 63.0654 166.375C69.0491 168.432 80.2798 186.756 83.5448 192.975C84.2248 194.27 85.4123 195.993 84.9898 197.388L83.3568 198.142L74.8047 201.435C68.4831 191.118 62.1829 178.405 61.9745 166.112Z"/>
	<path fill="#FEFEFE" d="M102.906 153.081C104.062 153.353 105.067 153.737 105.969 154.529C109.816 157.909 118.803 179.14 119.177 184.382L115.255 185.188C112.493 185.761 109.638 187.059 106.975 188.031C102.894 177.843 99.7263 163.856 102.906 153.081Z"/>
	<path fill="#FEFEFE" d="M188.148 218.319C188.651 218.329 189.545 218.278 190.051 218.442C191.288 218.843 191.798 219.385 192.355 220.541C193.899 223.742 191.694 229.745 190.445 232.904C189.323 235.742 182.32 251.373 179.82 252.444L178.683 251.343C176.42 248.953 173.709 246.864 171.324 244.567C175.817 235.214 180.3 225.368 188.148 218.319Z"/>
	<path fill="#FEFEFE" d="M960.892 166.355C961.328 166.741 961.715 167.146 961.915 167.715C964.482 175.019 952.276 196.087 948.774 202.813C946.531 201.719 944.493 200.31 942.412 198.941L937.764 196.276C944.355 185.847 950.76 173.715 960.892 166.355Z"/>
	<path fill="#FEFEFE" d="M917.903 152.76C919.15 153.228 920.024 153.744 920.685 154.908C924.566 161.744 919.725 180.526 917.712 187.876C915.355 186.795 913.052 185.903 910.595 185.088C908.305 184.502 905.828 184.342 903.482 184.043C907.427 173.496 911.028 161.778 917.903 152.76Z"/>
	<path fill="#FEFEFE" d="M957.076 220.799C960.579 222.101 962.519 226.164 964.532 229.116C961.677 238.661 956.849 250.403 951.351 258.697L950.867 258.737C948.179 253.81 946.466 247.602 944.502 242.308C948.956 235.268 951.453 227.083 957.076 220.799Z"/>
	<path fill="#FEFEFE" d="M831.569 216.122C838.903 217.905 850.613 239.524 854.825 246.237C852.837 246.889 850.919 247.712 848.986 248.511C846.683 250.047 844.834 251.77 842.872 253.704C840.281 249.107 838.009 244.22 835.893 239.387C833.041 232.87 828.803 223.185 831.569 216.122Z"/>
	<path fill="#FEFEFE" d="M900.917 189.913C905.939 190.325 910.11 191.188 914.838 192.946C914.617 197.455 915.498 218.447 913.909 221.024C909.391 220.922 904.841 221.398 900.336 221.725C899.332 211.198 898.897 200.333 900.917 189.913Z"/>
	<path fill="#FEFEFE" d="M120.858 190.579C121.465 190.605 122.096 190.43 122.527 190.929C125.683 194.571 124.149 216.16 124.002 221.424C120.488 220.519 116.957 220.49 113.356 220.47L107.939 220.753C108.137 211.796 108.493 202.861 108.583 193.897C112.648 192.641 116.719 191.566 120.858 190.579Z"/>
	<path fill="#FEFEFE" d="M856.992 251.948C857.825 252.043 858.413 252.209 859.171 252.612C865.073 255.75 870.12 269.945 871.469 276.224C870.487 278.248 869.397 280.212 867.888 281.9C866.068 283.935 864.235 284.699 861.56 284.788C854.114 277.991 849.697 269.053 845.732 259.925C848.885 255.89 852.322 253.797 856.992 251.948Z"/>
	<path fill="#FEFEFE" d="M166.613 248.847C169.595 250.483 175.222 256.247 178.435 258.728C176.083 266.816 171.824 277.659 164.68 282.641C163.993 282.853 163.293 283.09 162.58 283.203C160.745 283.492 159.028 282.89 157.614 281.732C155.031 279.616 153.447 276.605 153.27 273.27C152.802 264.443 161.027 254.861 166.613 248.847Z"/>
	<path fill="#FEFEFE" d="M243.534 456.645C247.122 458.372 250.563 461.868 252.973 465.011C258.399 472.09 260.094 480.596 258.872 489.323C257.543 498.814 252.041 507.798 244.31 513.438C236.125 519.408 226.61 521.566 216.665 519.979C210.068 517.703 204.909 513.195 200.438 507.982C210.738 507.35 219.386 503.701 227.095 496.773C239.343 485.767 242.739 472.456 243.534 456.645Z"/>
	<path fill="#FEFEFE" d="M259.789 462.805Q261.734 463.427 263.602 464.254Q265.47 465.08 267.239 466.101Q269.008 467.122 270.657 468.326Q272.307 469.53 273.819 470.903Q274.498 471.52 275.146 472.169Q275.793 472.819 276.409 473.499Q277.024 474.179 277.605 474.888Q278.187 475.598 278.733 476.335Q279.279 477.071 279.788 477.834Q280.298 478.597 280.769 479.384Q281.241 480.17 281.674 480.979Q282.106 481.788 282.499 482.617Q282.892 483.445 283.243 484.293Q283.595 485.14 283.905 486.003Q284.215 486.866 284.482 487.743Q284.75 488.621 284.974 489.51Q285.198 490.399 285.379 491.299Q285.56 492.198 285.696 493.105Q285.833 494.012 285.925 494.924Q286.017 495.837 286.064 496.753C286.517 506.92 283.205 516.924 276.181 524.373C269.755 531.187 261.689 534.349 252.427 534.565C244.232 533.951 238.505 530.896 232.029 526.023C234.994 525.23 237.776 524.334 240.56 523.024C251.218 518.008 259.535 509.242 263.436 498.063C267.845 485.429 265.366 474.533 259.789 462.805Z"/>
	<path fill="#FEFEFE" d="M780.348 454.407C780.67 454.517 781.043 454.531 781.315 454.737C781.635 454.979 781.302 465.305 781.451 466.894C782.235 475.233 785.842 483.521 791.059 490.033C799.5 500.57 810.684 506.046 823.934 507.582C819.357 513.547 814.428 517.919 807.403 520.734C802.462 521.901 797.583 521.778 792.725 520.293Q791.784 520.005 790.859 519.671Q789.933 519.337 789.025 518.958Q788.117 518.579 787.229 518.156Q786.341 517.733 785.474 517.267Q784.607 516.801 783.765 516.293Q782.922 515.785 782.106 515.237Q781.289 514.688 780.5 514.1Q779.711 513.512 778.952 512.886Q778.193 512.26 777.466 511.597Q776.738 510.935 776.044 510.237Q775.35 509.54 774.691 508.809Q774.032 508.079 773.41 507.317Q772.788 506.555 772.203 505.763Q771.619 504.971 771.074 504.152Q770.53 503.333 770.026 502.488Q769.522 501.643 769.06 500.774C764.255 491.648 763.073 480.581 766.284 470.724C768.705 463.294 773.408 457.937 780.348 454.407Z"/>
	<path fill="#FEFEFE" d="M760.58 464.423L760.902 464.499L761.213 465.102Q760.712 466.239 760.264 467.397C756.086 478.262 757.368 491.693 762.119 502.138C768.129 515.348 777.533 521.998 790.723 527.007C785.547 533.152 779.13 535.182 771.43 535.936C767.543 535.765 763.981 535.474 760.255 534.235C751.087 531.185 744.716 524.063 740.596 515.544C736.269 506.595 735.18 496.381 738.541 486.93C742.563 475.623 750.091 469.485 760.58 464.423Z"/>
	<path fill="#FEFEFE" d="M808.286 429.997C808.668 430.328 808.424 430.07 808.739 430.961C807.261 435.847 805.722 441.211 805.916 446.331Q805.943 447.259 806.017 448.184Q806.092 449.11 806.213 450.03Q806.334 450.951 806.502 451.864Q806.67 452.777 806.884 453.68Q807.098 454.583 807.358 455.474Q807.618 456.366 807.923 457.242Q808.228 458.119 808.578 458.979Q808.927 459.839 809.319 460.681Q809.712 461.522 810.147 462.342Q810.582 463.162 811.058 463.959Q811.535 464.756 812.051 465.528Q812.567 466.299 813.122 467.043Q813.676 467.788 814.268 468.503Q814.86 469.218 815.488 469.902Q816.116 470.586 816.777 471.237Q817.439 471.888 818.133 472.505C827.823 481.281 838.894 483.583 851.586 482.976C847.083 491.237 842.205 496.415 833.057 499.554C826.846 500.886 821.069 500.639 815.101 498.452C804.811 494.682 795.587 485.913 791.073 475.95C787.064 467.1 787.046 456.281 790.505 447.239C793.768 438.71 800.17 433.558 808.286 429.997Z"/>
	<path fill="#FEFEFE" d="M215.174 429.096C221.704 430.791 228.333 436.732 231.823 442.392C236.817 450.491 237.598 460.363 235.439 469.498C232.789 480.711 225.98 490.887 216.027 496.861C208.339 501.476 200.349 502.573 191.677 500.447C190.276 500.04 188.906 499.598 187.558 499.039C179.588 495.738 174.77 489.677 171.664 481.862Q173.957 482.232 176.278 482.334Q178.598 482.435 180.915 482.266Q183.232 482.096 185.513 481.659Q187.794 481.221 190.009 480.521Q190.957 480.224 191.889 479.88Q192.82 479.536 193.734 479.147Q194.648 478.759 195.542 478.325Q196.436 477.892 197.307 477.415Q198.179 476.939 199.025 476.42Q199.872 475.901 200.693 475.342Q201.513 474.782 202.306 474.183Q203.098 473.583 203.859 472.946Q204.621 472.309 205.35 471.635Q206.08 470.961 206.776 470.252Q207.471 469.543 208.131 468.8Q208.791 468.058 209.414 467.284Q210.036 466.511 210.62 465.707Q211.204 464.904 211.748 464.073Q212.292 463.242 212.795 462.385Q213.297 461.528 213.757 460.648C219.28 450.12 218.598 440.129 215.174 429.096Z"/>
	<path fill="#FEFEFE" d="M191.85 418.142C197.404 419.608 202.397 423.166 205.904 427.694Q206.327 428.251 206.722 428.829Q207.117 429.407 207.483 430.004Q207.848 430.601 208.183 431.215Q208.518 431.83 208.822 432.46Q209.125 433.091 209.397 433.736Q209.668 434.381 209.907 435.039Q210.146 435.697 210.352 436.366Q210.557 437.035 210.729 437.714Q210.9 438.392 211.038 439.078Q211.175 439.765 211.277 440.457Q211.38 441.149 211.448 441.846Q211.515 442.542 211.548 443.242Q211.581 443.941 211.578 444.641Q211.576 445.341 211.538 446.039Q211.5 446.738 211.427 447.434Q211.355 448.13 211.247 448.822C209.997 456.928 204.923 463.99 198.418 468.792C190.199 474.859 180.753 476.82 170.752 475.335C167.455 474.383 164.756 473.367 162.029 471.215C156.18 466.599 152.694 459.422 151.937 452.066C151.716 449.926 151.842 447.575 153.339 445.895C154.48 444.613 161.828 446.699 164.095 446.483C171.717 445.755 181.335 439.017 186.285 433.433C190.519 428.656 192.194 424.403 191.85 418.142Z"/>
	<path fill="#FEFEFE" d="M831.576 419.399C832.461 419.568 832.981 419.522 833.379 420.475C833.838 421.575 833.861 423.016 834.231 424.187C835.19 427.226 836.861 430.091 838.835 432.586C844.555 439.819 853.558 446.12 863.046 446.579C865.438 446.695 867.603 445.673 870.012 445.968C870.313 446.285 870.408 446.347 870.625 446.796C872.866 451.431 871.395 459.257 869.301 463.695C866.218 470.227 860.672 473.839 854.049 476.073C847.654 477.213 841.448 476.743 835.359 474.45C826.249 471.019 819.31 464.635 815.302 455.748C812.329 449.155 811.585 441.713 814.37 434.891C817.543 427.12 824.105 422.482 831.576 419.399Z"/>
	<path fill="#FEFEFE" d="M112.601 231.125C114.801 230.99 116.943 230.897 119.117 231.337C133.866 234.325 143.811 246.271 151.671 258.162C148.978 263.772 147.484 268.055 147.355 274.335C145.889 270.915 144.436 267.481 142.626 264.225C137.904 255.728 130.042 247.295 120.355 244.733Q119.881 244.605 119.401 244.502Q118.92 244.398 118.436 244.319Q117.951 244.239 117.463 244.184Q116.975 244.129 116.485 244.099Q115.994 244.068 115.503 244.062Q115.012 244.056 114.521 244.075Q114.03 244.093 113.541 244.137Q113.052 244.18 112.565 244.248Q112.079 244.315 111.596 244.407Q111.114 244.499 110.637 244.615Q110.159 244.731 109.688 244.871Q109.217 245.011 108.754 245.174Q108.291 245.337 107.836 245.523Q107.382 245.71 106.937 245.918Q106.493 246.127 106.059 246.358Q105.625 246.589 105.204 246.841C98.2032 251.02 94.3341 259.235 92.4549 266.885C87.7969 285.846 92.6255 309.114 102.777 325.565C108.193 334.34 116.215 343.168 126.76 345.393C132.069 346.513 137.165 345.251 141.556 342.115C150.027 336.064 152.893 326.39 154.394 316.62C155.654 304.812 154.067 293.333 150.471 282.066C151.09 282.921 151.713 283.789 152.413 284.581C155.565 288.152 159.503 288.676 163.975 288.886C166.828 306.722 166.624 326.727 156.707 342.52C152.271 349.583 145.369 355.676 137.015 357.368C128.472 359.099 120.267 356.375 113.282 351.534C96.5414 339.933 85.9227 318.109 82.3754 298.528C79.2097 281.054 79.8186 260.346 90.4452 245.337C95.8678 237.678 103.318 232.711 112.601 231.125Z"/>
	<path fill="#FEFEFE" d="M168.71 344.331C172.046 355.638 174.083 367.815 176.675 379.336C179.631 392.475 184.279 409.771 185.545 422.927C181.791 429.022 176.846 433.852 170.566 437.343C166.903 439.379 161.861 441.64 157.661 440.272C155.669 439.624 153.981 438.55 153.004 436.682C143.942 415.111 137.382 391.952 130.655 369.546C133.806 369.411 137.055 369.066 140.126 368.345C153.765 365.144 161.636 355.755 168.71 344.331Z"/>
	<path fill="#FEFEFE" d="M907.542 231.695C908.763 231.627 910.051 231.651 911.269 231.751C918.521 232.345 925.795 237.571 930.495 242.872C940.74 254.424 944.082 271.132 943.193 286.156C941.896 308.068 932.78 332.719 915.958 347.497C909.03 353.584 899.371 358.681 889.913 357.906C881.814 357.241 874.764 352.603 869.631 346.512C856.617 331.069 855.986 308.799 857.734 289.702C859.638 290.445 861.584 290.96 863.554 291.489C867.662 289.813 869.764 288.249 872.539 284.799C870.073 291.618 869.202 298.621 868.542 305.798C868.478 309.979 868.705 314.132 869.438 318.255C871.025 327.18 875.023 336.977 882.874 342.151C887.343 345.097 892.554 345.723 897.712 344.53C908.107 342.125 915.925 333.799 921.389 325.07C931.426 309.036 935.898 287.092 931.576 268.554C929.627 260.19 925.686 252.263 918.053 247.719C912.934 244.671 907.152 243.946 901.407 245.435C888.356 248.818 882.796 259.718 876.679 270.41C875.435 265.95 873.287 262.151 871.044 258.138C872.64 255.499 874.297 253.05 876.234 250.647C884.314 240.626 894.5 233.046 907.542 231.695Z"/>
	<path fill="#FEFEFE" d="M856.068 347.311C857.008 348.286 857.792 349.585 858.634 350.665C867.882 362.523 877.757 367.77 892.534 369.607C888.653 388.074 879.687 419.079 871.447 435.86C870.486 437.316 869.357 438.95 867.789 439.794C865.57 440.987 862.705 441.063 860.343 440.279C852.855 437.794 844.434 431.095 841.156 423.842C840.071 421.442 839.549 418.944 839.522 416.315C839.462 410.472 840.983 404.33 842.108 398.617C845.561 381.088 850.01 364.127 856.068 347.311Z"/>
	<path fill="#FEFEFE" d="M767.394 763.005C767.45 766.922 763.665 774.913 762.203 778.909Q759.599 780.15 756.962 781.317C723.776 795.948 679.556 804.22 643.656 809C624.394 811.565 605.025 813.977 585.644 815.422Q550.458 817.764 515.195 817.48C456.913 817.556 398.679 813.921 341.379 802.647C313.416 797.144 286.95 789.174 260.446 778.858L258.299 773.377L254.957 763.177C266.036 767.292 276.502 772.557 287.78 776.242C330.869 790.321 373.656 797.314 418.604 801.789Q432.28 803.219 445.992 804.232Q459.705 805.245 473.443 805.84Q487.18 806.435 500.929 806.612Q514.678 806.788 528.426 806.546Q542.174 806.304 555.908 805.643Q569.642 804.982 583.35 803.904Q597.058 802.825 610.727 801.33Q624.395 799.835 638.012 797.924C681.813 791.923 727.658 783.166 767.394 763.005Z"/>
	<path fill="#FEFEFE" d="M505.291 101.718C521.777 100.782 538.969 102.44 555.176 105.456C622.185 117.925 679.61 159.909 717.784 215.472C710.059 247.679 707.539 288.845 710.603 321.909C711.814 334.982 714.147 347.962 716.232 360.919C711.55 369.506 706.245 377.275 699.634 384.498C654.211 434.117 587.733 451.585 522.625 454.478C499.249 454.926 476.333 453.634 453.289 449.511C406.511 441.141 357.475 421.656 324.565 386.152C318.503 379.612 313.521 372.268 308.441 364.968C308.542 357.679 309.686 350.382 310.391 343.127Q311.686 328.468 312.796 313.794C314.392 292.675 315.092 270.873 313.034 249.778C311.875 237.906 309.702 226.193 307.669 214.447C314.544 203.631 322.629 193.744 331.15 184.192Q333.219 181.896 335.344 179.652Q337.469 177.407 339.648 175.216Q341.828 173.025 344.061 170.888Q346.294 168.752 348.579 166.671Q350.864 164.59 353.2 162.566Q355.536 160.542 357.921 158.577Q360.306 156.611 362.739 154.705Q365.172 152.799 367.651 150.954Q370.13 149.108 372.654 147.325Q375.178 145.541 377.746 143.821Q380.313 142.1 382.922 140.443Q385.531 138.786 388.18 137.194Q390.829 135.602 393.517 134.076Q396.205 132.55 398.929 131.091Q401.654 129.632 404.413 128.241Q407.173 126.849 409.966 125.526Q412.759 124.203 415.584 122.95Q418.409 121.696 421.265 120.513Q424.12 119.33 427.003 118.217Q429.887 117.105 432.797 116.064Q435.707 115.023 438.641 114.054Q441.576 113.085 444.534 112.189Q447.492 111.293 450.471 110.47Q453.45 109.648 456.449 108.899Q459.447 108.15 462.463 107.475Q465.48 106.801 468.511 106.201Q471.543 105.601 474.589 105.076Q477.635 104.551 480.692 104.101Q483.75 103.652 486.818 103.278Q489.886 102.904 492.962 102.606Q496.039 102.308 499.121 102.086Q502.204 101.864 505.291 101.718Z"/>
	<path d="M476.985 184.218C491.762 183.445 506.683 183.843 521.481 183.918C570.067 184.162 622.851 186.776 661.015 220.96C684.101 241.639 696.004 270.402 697.637 301.017C698.98 326.203 692.81 350.988 675.589 370.001C643.254 405.699 591.987 410.691 546.838 412.892Q522.817 413.744 498.783 413.501C449.728 413.291 392.552 409.912 354.086 375.42C334.854 358.174 327.343 335.105 326.067 309.835Q325.993 308.454 325.953 307.072Q325.913 305.689 325.907 304.306Q325.901 302.924 325.929 301.541Q325.958 300.158 326.02 298.777Q326.082 297.395 326.178 296.016Q326.274 294.636 326.404 293.259Q326.534 291.883 326.697 290.509Q326.861 289.136 327.059 287.767Q327.256 286.399 327.487 285.035Q327.718 283.672 327.983 282.314Q328.247 280.957 328.545 279.606Q328.843 278.256 329.174 276.913Q329.505 275.57 329.869 274.236Q330.233 272.902 330.629 271.577Q331.026 270.252 331.455 268.938Q331.884 267.623 332.345 266.319Q332.806 265.016 333.3 263.724Q333.793 262.432 334.318 261.152Q334.842 259.873 335.398 258.606Q335.954 257.34 336.542 256.088Q337.129 254.836 337.746 253.599Q338.364 252.361 339.012 251.14Q339.66 249.918 340.338 248.712Q341.015 247.507 341.723 246.319Q342.43 245.13 343.166 243.96Q343.902 242.789 344.667 241.637Q345.432 240.484 346.225 239.351Q347.018 238.218 347.838 237.105Q348.659 235.992 349.506 234.899Q350.354 233.807 351.228 232.735Q352.102 231.664 353.003 230.614Q353.903 229.564 354.829 228.537C385.576 194.97 433.603 186.216 476.985 184.218Z"/>
	<path fill="#FEFEFE" d="M481.334 196.279C493.957 195.79 506.624 195.956 519.256 195.939C562.894 195.883 617.629 197.767 651.769 228.731Q652.717 229.576 653.643 230.445Q654.569 231.313 655.474 232.205Q656.378 233.096 657.259 234.01Q658.14 234.925 658.999 235.86Q659.857 236.796 660.691 237.754Q661.525 238.711 662.335 239.689Q663.145 240.667 663.931 241.665Q664.716 242.663 665.475 243.68Q666.235 244.697 666.969 245.733Q667.703 246.77 668.411 247.824Q669.119 248.878 669.8 249.95Q670.481 251.022 671.134 252.11Q671.788 253.199 672.414 254.304Q673.041 255.408 673.639 256.528Q674.237 257.648 674.807 258.783Q675.377 259.918 675.918 261.067Q676.459 262.215 676.971 263.377Q677.483 264.539 677.966 265.714Q678.449 266.888 678.902 268.075Q679.355 269.261 679.778 270.458Q680.201 271.655 680.593 272.863Q680.986 274.07 681.348 275.287Q681.711 276.504 682.042 277.73Q682.374 278.956 682.674 280.19Q682.975 281.423 683.245 282.664Q683.514 283.905 683.752 285.152Q683.991 286.399 684.197 287.652Q684.404 288.905 684.579 290.163Q684.755 291.421 684.898 292.682Q685.042 293.944 685.153 295.209Q685.265 296.474 685.345 297.741Q685.425 299.008 685.473 300.277C686.446 323.143 680.968 346.547 665.097 363.753C659.918 369.369 653.333 373.85 646.812 377.753C615.398 396.555 578.151 399.647 542.397 400.977C530.212 401.184 518.005 401.084 505.818 401.105C458.527 401.187 398.24 399.579 361.368 365.58C345.376 350.834 338.903 330.657 338.127 309.311C337.144 282.314 346.234 255.675 364.883 235.888C394.597 204.36 440.105 197.565 481.334 196.279Z"/>
	<path d="M482.354 208.726Q483.032 208.687 483.71 208.661C497.34 208.197 511.099 208.531 524.741 208.586C566.706 208.756 613.189 210.14 645.756 240.517Q646.549 241.271 647.323 242.043Q648.097 242.816 648.852 243.608Q649.607 244.399 650.342 245.209Q651.078 246.019 651.793 246.846Q652.508 247.673 653.203 248.518Q653.898 249.363 654.572 250.224Q655.246 251.085 655.899 251.963Q656.552 252.841 657.183 253.734Q657.815 254.627 658.424 255.536Q659.033 256.444 659.62 257.367Q660.207 258.29 660.771 259.227Q661.335 260.164 661.876 261.115Q662.417 262.065 662.935 263.029Q663.453 263.993 663.947 264.968Q664.441 265.944 664.911 266.932Q665.381 267.92 665.826 268.919Q666.272 269.917 666.693 270.927Q667.115 271.936 667.511 272.956Q667.907 273.975 668.279 275.004Q668.65 276.033 668.996 277.07Q669.343 278.108 669.663 279.154Q669.984 280.199 670.279 281.253Q670.574 282.306 670.843 283.366Q671.113 284.426 671.356 285.493Q671.599 286.559 671.816 287.631Q672.033 288.703 672.224 289.78Q672.415 290.857 672.58 291.939Q672.744 293.02 672.882 294.105Q673.02 295.19 673.132 296.278Q673.243 297.366 673.328 298.457Q673.413 299.547 673.471 300.639Q673.529 301.732 673.561 302.825C674.217 322.813 669.494 341.216 655.559 356.041C629.101 384.188 578.982 387.616 542.438 388.778C542.393 388.78 542.348 388.783 542.304 388.785C528.971 389.22 515.591 389.058 502.253 389.036C460.783 388.97 403.77 388.048 371.413 358.285C357.071 345.093 351.591 326.02 350.847 307.034Q350.806 305.968 350.792 304.9Q350.777 303.833 350.789 302.766Q350.801 301.699 350.839 300.632Q350.877 299.566 350.941 298.5Q351.005 297.435 351.095 296.372Q351.186 295.308 351.302 294.247Q351.418 293.186 351.561 292.129Q351.703 291.071 351.872 290.017Q352.04 288.963 352.234 287.914Q352.429 286.864 352.649 285.82Q352.869 284.776 353.114 283.737Q353.36 282.698 353.631 281.666Q353.902 280.634 354.198 279.608Q354.495 278.583 354.816 277.565Q355.138 276.548 355.484 275.538Q355.83 274.529 356.201 273.528Q356.572 272.527 356.968 271.536Q357.364 270.545 357.783 269.564Q358.203 268.582 358.647 267.612Q359.091 266.641 359.558 265.682Q360.026 264.722 360.517 263.775Q361.008 262.827 361.522 261.892Q362.036 260.957 362.573 260.034Q363.11 259.112 363.669 258.203Q364.229 257.294 364.81 256.399Q365.392 255.504 365.995 254.624Q366.599 253.744 367.223 252.878Q367.848 252.013 368.494 251.164Q369.14 250.314 369.807 249.481Q370.473 248.647 371.16 247.83Q371.847 247.013 372.554 246.214Q373.261 245.414 373.987 244.632C401.663 214.805 444.058 210.106 482.354 208.726Z"/>
	<path fill="#FEFEFE" d="M579.617 247.535C582.269 247.279 584.788 247.346 587.242 248.5C592.109 250.791 595.171 255.487 596.894 260.43C599.831 268.855 599.416 279.362 595.436 287.391C593.136 292.033 590.212 294.811 585.328 296.477C583.362 296.567 581.41 296.703 579.518 296.056C575.153 294.563 571.968 291.097 569.973 287.033C566.059 279.061 565.755 269.073 568.525 260.702C570.55 254.581 573.84 250.381 579.617 247.535Z"/>
	<path fill="#FEFEFE" d="M439.229 247.538C441.484 247.516 443.619 247.615 445.727 248.493C450.313 250.402 453.329 254.657 455.111 259.139C458.289 267.133 458.436 276.947 454.921 284.866C452.42 290.5 449.049 293.836 443.311 296.013C440.773 296.322 438.395 296.122 436.063 294.996C431.289 292.69 428.374 287.976 426.698 283.113C423.87 274.908 424.095 264.965 428.095 257.176C430.566 252.364 434.066 249.156 439.229 247.538Z"/>
	<path fill="#FEFEFE" d="M472.526 339.205C498.644 338.516 525.075 338.624 551.201 338.908C548.244 344.455 544.651 348.483 539.773 352.415Q537.888 353.848 535.875 355.095Q533.862 356.342 531.739 357.391Q529.616 358.44 527.403 359.282Q525.19 360.124 522.906 360.75Q521.827 361.046 520.734 361.288Q519.642 361.531 518.539 361.718Q517.436 361.905 516.325 362.038Q515.213 362.17 514.097 362.247Q512.981 362.324 511.862 362.345Q510.743 362.366 509.625 362.331Q508.506 362.297 507.391 362.206Q506.276 362.116 505.166 361.97Q504.057 361.825 502.956 361.624Q501.855 361.423 500.766 361.168Q499.676 360.913 498.601 360.604Q497.526 360.294 496.467 359.932Q495.408 359.57 494.369 359.155Q493.33 358.74 492.312 358.275Q491.295 357.809 490.302 357.293Q489.309 356.777 488.343 356.212C482.496 352.819 474.287 345.971 472.526 339.205Z"/>
	<path fill="#FEFEFE" d="M659.217 461.994C669.377 463.842 707.259 499.288 715.537 508.595C757.855 556.172 782.018 618.303 787.28 681.403C788.348 694.217 788.98 707.162 788.219 720.014C760.194 733.204 728.664 741.047 698.387 746.995C650.954 756.313 603.438 760.626 555.178 762.372Q529.719 763.394 504.24 763.289Q478.762 763.184 453.312 761.953Q427.863 760.721 402.493 758.366Q377.123 756.01 351.882 752.535C322.14 747.537 291.732 741.476 263.388 731.003C253.814 727.465 244.843 722.93 235.506 718.866Q235.266 711.657 235.362 704.445Q235.458 697.233 235.89 690.033Q236.321 682.833 237.087 675.661Q237.854 668.489 238.953 661.36Q240.052 654.232 241.482 647.162Q242.911 640.092 244.669 633.097Q246.426 626.101 248.507 619.195Q250.588 612.289 252.988 605.487C272.829 547.582 313.419 490.287 369.443 462.855C381.206 470.544 394.939 474.585 408.508 477.868C427.967 482.576 448.579 485.628 468.543 487.122C517.82 490.809 616.628 488.056 659.217 461.994Z"/>
	<path d="M503.39 517.22C504.217 517.165 505.033 517.144 505.862 517.127C555.515 516.124 615.101 532.549 651.525 567.771C666.935 582.672 686.072 609.449 686.333 631.989C686.455 642.555 681.533 651.625 674.28 659.035C641.975 692.038 564.201 700.958 519.875 701.42C469.579 701.499 392.115 696.139 352.934 660.923C344.426 653.276 337.535 643.65 337.024 631.861C336.256 614.142 353.795 586.173 365.341 573.512C400.681 534.76 452.382 519.547 503.39 517.22Z"/>
	<path fill="#FEFEFE" d="M510.47 559.222C539.638 557.995 578.308 566.828 600.299 586.183C607.835 592.816 615.768 602.45 616.272 612.941C616.577 619.298 613.979 625.12 609.563 629.62C590.621 648.929 540.449 653.248 514.463 653.655C486.591 653.627 437.839 649.017 416.187 630.983C411.509 627.087 408.376 622.243 407.937 616.042C407.337 607.551 411.587 600.07 417.103 594.004C433.204 576.296 462.667 565.693 485.983 561.558C494.091 560.12 502.259 559.609 510.47 559.222Z"/>
	<path d="M589.8 600.578C592.555 600.645 595.114 600.905 597.63 602.12C600.8 603.649 603.337 606.376 604.388 609.757Q604.554 610.304 604.665 610.865Q604.776 611.425 604.832 611.994Q604.888 612.562 604.888 613.134Q604.889 613.705 604.833 614.274Q604.777 614.843 604.666 615.404Q604.555 615.964 604.389 616.511Q604.224 617.058 604.006 617.586Q603.788 618.115 603.519 618.619C601.573 622.318 598.347 624.296 594.478 625.507C591.547 625.738 588.821 625.625 586.121 624.357C583.004 622.894 580.519 620.242 579.479 616.936Q579.285 616.32 579.156 615.687Q579.027 615.054 578.965 614.412Q578.902 613.769 578.907 613.123Q578.912 612.477 578.983 611.836Q579.055 611.194 579.193 610.563Q579.332 609.932 579.534 609.319Q579.737 608.706 580.003 608.117Q580.269 607.529 580.594 606.971C582.671 603.45 585.947 601.572 589.8 600.578Z"/>
	<path d="M432.408 600.639C434.544 600.787 436.495 601.05 438.473 601.922C441.665 603.33 444.187 605.626 445.316 608.99C446.432 612.317 446.002 616.116 444.422 619.224C442.12 623.754 438.74 625.246 434.173 626.662C431.13 626.568 428.344 625.935 425.795 624.181Q425.258 623.816 424.759 623.4Q424.26 622.984 423.805 622.521Q423.35 622.058 422.943 621.551Q422.536 621.045 422.182 620.501Q421.827 619.957 421.528 619.38Q421.229 618.804 420.989 618.201Q420.748 617.597 420.569 616.973Q420.39 616.349 420.273 615.71Q420.153 615.076 420.098 614.433Q420.043 613.79 420.054 613.145Q420.064 612.499 420.14 611.858Q420.217 611.217 420.358 610.588Q420.499 609.958 420.703 609.346Q420.907 608.733 421.173 608.145Q421.438 607.557 421.762 606.999Q422.086 606.44 422.465 605.918C425.07 602.395 428.287 601.37 432.408 600.639Z"/>
	<path d="M504.464 571.707C504.513 571.701 504.562 571.693 504.612 571.69C519.235 570.717 551.416 574.033 562.344 584.012C564.044 585.564 565.812 587.961 565.613 590.396C565.524 591.486 565.029 592.355 564.226 593.076C562.909 594.259 560.244 595.435 558.477 595.234C554.325 594.761 549.437 591.933 545.481 590.437C538.048 587.627 530.489 585.772 522.577 585.05C508.257 583.14 492.541 585.327 479.005 590.22C475.116 591.626 470.979 594.607 466.938 595.21C465.158 595.475 463.392 595.085 461.999 593.906C460.944 593.013 460.504 591.847 460.388 590.508C460.177 588.067 460.623 585.718 462.25 583.82C467.984 577.127 496.046 572.461 504.464 571.707Z"/>
</svg>
